<svg id="Layer_1" data-name="Layer 1" xmlns="http://www.w3.org/2000/svg" xmlns:xlink="http://www.w3.org/1999/xlink" viewBox="0 0 521.19 701.26"><defs><style>.cls-1,.cls-10,.cls-9{fill:#f99f4b;}.cls-1,.cls-2,.cls-5{opacity:0.1;}.cls-1,.cls-10,.cls-2,.cls-5{isolation:isolate;}.cls-2{fill:#6466af;}.cls-3{fill:url(#linear-gradient);}.cls-4{fill:#4d4a82;}.cls-5{fill:#010101;}.cls-6{fill:#af6f7a;}.cls-7{fill:#454154;}.cls-8{fill:#fff;}.cls-10{opacity:0.44;}</style><linearGradient id="linear-gradient" x1="222.07" y1="220.85" x2="222.07" y2="456.04" gradientTransform="matrix(1, 0, 0, -1, -98.04, 812.39)" gradientUnits="userSpaceOnUse"><stop offset="0" stop-color="#818181" stop-opacity="0.25"/><stop offset="0.54" stop-color="#818181" stop-opacity="0.12"/><stop offset="1" stop-color="#818181" stop-opacity="0.1"/></linearGradient></defs><title>question-svg</title><path class="cls-1" d="M55,34.11C78.44,18.78,107,32,131.37,51.18c76.57,60.38,132.35,175,176.68,291.76,16,42.29,31.29,86.43,37.32,133.63C357.65,572.64,325.62,672.1,271.13,707c-18.53,11.86-38.89,16.73-59.28,19.44-36.25,4.83-73.79,2.91-109.75-15-25.65-12.78-49.91-33.33-73.18-56-65-63.45-124.33-145.84-167.06-246.48-18.74-44.14-34.6-93.91-35.06-144.84S-154.77,162-123.7,153.29c12.84-3.57,26.43.15,39.68,4,19.52,5.65,39.3,11.59,58.59,9.13,19.93-2.57,45.85-16.25,49.49-49.7C27.91,80.79,31.57,49.41,55,34.11Z" transform="translate(173.2 -27.4)"/><ellipse class="cls-2" cx="305.43" cy="561.47" rx="51.48" ry="5.07"/><path class="cls-3" d="M183.7,435.77a35.66,35.66,0,0,1-.54-5.36c0-2.15-2.93-4.06-2.93-4.06s-1.81-4.18-3-4.79-4.93-6.09-4.93-6.09a4.9,4.9,0,0,0-1.12-3,43.53,43.53,0,0,1-3-4.6h0c-.5-.61-.25-1.05-1-4.61a4.26,4.26,0,0,0-.14-.54.7.7,0,0,0-.08-.23,6,6,0,0,0,1.42-6.24,2.47,2.47,0,0,0-.71-1.11c-.85-.69-2.2-.4-3.08-1.06l.93-4.11c.22-1,.34-2.27-.54-2.81a4.82,4.82,0,0,0-1-.35c-1.51-.5-2.38-2.09-2.77-3.62a12.53,12.53,0,0,1-.31-4.52c.18-1.46.6-2.87.76-4.33a12,12,0,0,0-1.84-7.7,5.94,5.94,0,0,0-2.44-2.3c-.93-.42-2-.5-2.87-1-1.87-1.19-1.78-4-3.27-5.64s-4.13-1.62-6.3-1.06-4.34,1.51-6.57,1.27c-1.43-.16-2.78-.81-4.22-1a4.6,4.6,0,0,0-1.23.05v0a2.67,2.67,0,0,0-2.3,1.79,3,3,0,0,0-.07.73c0,.59.14,1.2.15,1.76a1.69,1.69,0,0,1-.4,1.24c-.29.31-.71.47-1,.79a1.24,1.24,0,0,0-.36.92c0,.89,1.11,1.68,1.86,2h0c-.2.2-.4.41-.59.63a13.25,13.25,0,0,0-3.32,8.78A13.42,13.42,0,0,0,135,387.93l-.11.32a18.16,18.16,0,0,1-.73,1.9,3.78,3.78,0,0,0-3.16.35c-1.43,1-4.24.92-5,.74s-8.54-1.17-9.16-.92-1.87-.86-2.68.61-1.18,2.28-2,2.65-2.24,1.53-2,1.78-2.06,1.72-2.06,1.72-1.93,2-3,2.27a18.12,18.12,0,0,0-3.49,1.79l-2.74,2.15s-2.06.31-1.43-1.1-1.13-3.2-1.13-3.2-3.49-7.07-3.49-8.53-2.86-7.69-2.86-7.69l-.35,0-.17-.46c-.52-1.48-1.21-3.29-1.73-4.36-1-2-1.62-2.24-1.62-2.24S73.88,366.59,66,369.36s14.33,11,16.33,11.87a3.73,3.73,0,0,1,1.55,2.41,10.39,10.39,0,0,0-4.29,3.86s4.8,10.64,4.92,13.29,3.3,10,3.3,10S89,416.3,95.44,416c0,0,8.85,1.63,10.78,0s3.68-2.9,4.62-3.09a3.58,3.58,0,0,0,1.74-1.23s-2.93,18.45-4.36,20.05-14.12,22.31-9.57,26a90.58,90.58,0,0,0,11.4,7.53c.39.19,1.55-1.74,3.2-3.11v1.07c0,7.37,1,18.57,2.35,21.08,2,3.69,1.19,10.82,1.19,10.82a8.34,8.34,0,0,0,3.36.81c.06.24.13.5.2.75,1.1,4.16,2.88,10.58,3.79,12.28,1.37,2.59,2.36,10.77,2.36,10.77s.82,8,.5,9.16a54,54,0,0,0,1.24,8h0c-.5,5.77-1.46,16.88-1.62,20.91h0v.29a.29.29,0,0,1,0,.13v.25h0a4.88,4.88,0,0,0,0,.76,2.32,2.32,0,0,1-.08,1.14,20.67,20.67,0,0,1-1.35,3.22,14.75,14.75,0,0,0-.6,1.56,2.79,2.79,0,0,0-1.46,2.07c-.62,2.4-1.56,9-1.56,9s-.37,4.06-1.12,5-1.5,6.7,3.8,7.43,7.6-2.81,7.6-2.81l-.18-16.1v0a2.16,2.16,0,0,0,.27-.44v0a1.33,1.33,0,0,0,.11-.24l0-.12.08-.2v-.07a10.66,10.66,0,0,0,.45-4.79v-.68a1.84,1.84,0,0,1,0-.33c0-.17,0,0,0-.06l0-.2v-.08a.36.36,0,0,1,0-.2v0c.05-.23.11-.5.18-.73v0l.07-.24h0c.08-.26.16-.5.25-.77v-.05a.7.7,0,0,1,.09-.24v0c.09-.25.18-.5.28-.71l0-.07.08-.2,0-.06.19-.45h0l1.47,4.55s.81,3.38.37,4.18.51,4.12,1.12,4.18l-.57,4.18a62.19,62.19,0,0,0-.56,7c0,.27-.08.5-.11.66a15.14,15.14,0,0,0,.56,5.47c4.92,5.82,10.78.45,10.78.45s.68-3.08,0-3.69-.37-2.83-.37-2.83.31-5.47.37-9.47-3.27-7.53-3.27-7.53l-.19.17c-.6-1.57-1.3-3.4-1.15-4.21.25-1.42-.69-16.36-.69-16.36a88.12,88.12,0,0,0,.22-12.05h0c.08-.68.16-1.34.23-2,.38-3.21.69-5.95.81-7.4h0v-.17c0-.38,0-.66,0-.79,0-.5,0-1.07.05-1.7.11-1.73.38-3.65.38-3.65l1.31-7.94a24.77,24.77,0,0,1,2.43-6l.17-.27h0c.06-.09.11-.2.17-.31l0-.05.17-.33,0,0c.21-.4.42-.86.65-1.36,0,0,0-.07.05-.11l.17-.38a.47.47,0,0,1,.06-.15c0-.06.11-.26.16-.39a1,1,0,0,0,.07-.15l.2-.47.1-.23c0-.12.09-.23.14-.35l.12-.3a2.29,2.29,0,0,0,.1-.23l.13-.34c0-.05.05-.11.07-.16.35-.89.7-1.77,1-2.56h0c.1-.26.19-.51.28-.73,3.19.2,5.36.37,5.36.37a73.78,73.78,0,0,0,.68-11.92,44.19,44.19,0,0,1,.79-9.54c0-.24.08-.47.12-.67l.09.07c1.56,1.23,2.68-2.83,2.68-2.83s-.42-3.79-1-8.38l-.06-.46a22.93,22.93,0,0,0,2.72.42s.5,0,1.19-.13a32.93,32.93,0,0,0,6,2.71l3.32-6.12a26,26,0,0,1,2.18-3.63c1-1.23,4.55-5.17,4.49-5.9a20.94,20.94,0,0,1,2.43-6.9A15.09,15.09,0,0,0,183.7,435.77Zm-13.83,4.67c-1.31.55-2.56,3.63-2.62,4.55s-1.43,5-2.86,5.47-3.84,2.77-4.24,3.14c-.41,0-.88.09-1.37.17a49.29,49.29,0,0,0-1.43-7.74c-1-1.84,1.1-7.75,1.1-7.75s.2-6,1.5-7.37,1-5,1-5,.31-1.47.43-2.15,1.85,0,1.87,0h0s3.36,1.85,3.86,4.61S171.3,436,171.3,436s-.56,1.66,0,2.51S171.18,439.89,169.87,440.44Z" transform="translate(173.2 -27.4)"/><path class="cls-4" d="M79.76,387.88a10,10,0,0,1,10-4.73v7.19H85.43L82,389.47Z" transform="translate(173.2 -27.4)"/><path class="cls-5" d="M79.76,387.88a10,10,0,0,1,10-4.73v7.19H85.43L82,389.47Z" transform="translate(173.2 -27.4)"/><path class="cls-6" d="M90.12,385.05l-5.34,3.75s0-.75-.18-1.77c-.27-1.94-.87-4.85-2.16-5.41-2-.86-23.81-9.08-16.06-11.85S86,376.07,86,376.07s.61.21,1.59,2.23c.5,1.07,1.19,2.88,1.71,4.36S90.12,385.05,90.12,385.05Z" transform="translate(173.2 -27.4)"/><polygon class="cls-4" points="306.03 363.42 306.64 363.13 308.35 365.08 306.95 368.06 304.57 367.1 305.12 364.72 306.03 363.42"/><path class="cls-7" d="M124.74,565.15s-1.54-.18-2.15,2.21-1.53,9-1.53,9-.37,4.05-1.11,5-1.47,6.69,3.75,7.42a7.55,7.55,0,0,0,7.49-2.8l-.19-16.1Z" transform="translate(173.2 -27.4)"/><path class="cls-7" d="M142.94,565.87s3.28,3.51,3.22,7.5-.37,9.45-.37,9.45-.3,2.22.37,2.83,0,3.68,0,3.68-5.77,5.36-10.62-.45a15.43,15.43,0,0,1-.55-5.46c.39-2.13,1.49-11.75,1.49-11.75Z" transform="translate(173.2 -27.4)"/><path class="cls-6" d="M151.07,492.47s-3.31,9.27-4.73,11.42a24.86,24.86,0,0,0-2.39,6l-1.29,7.92a45.4,45.4,0,0,0-.43,5.34c.06,1.78-3.19,27.74-3.19,27.74l-5.15,6.57s-2.27,4.6-1.91,6.52-.24,5-1,5.9c0,0-.12,6-.31,7.36s.68,5.16,0,5.83-9.69.37-9.94-.74,1.1-6.44,1.1-6.44l.8-5.15s1.6-2.83,1.23-3.75.68-3.07.74-3.25,1.72-3.19,1.41-4.36,1.93-25.93,1.93-25.93l6.32-44.37Z" transform="translate(173.2 -27.4)"/><path class="cls-5" d="M151.07,492.47s-.5,1.4-1.19,3.23a62.08,62.08,0,0,1-3.54,8.19,24.86,24.86,0,0,0-2.39,6l-1.29,7.92a45.4,45.4,0,0,0-.43,5.34c0,.7-.47,5.19-1.07,10.35-.93,7.9-2.12,17.39-2.12,17.39l-5.15,6.57s-.26.51-.59,1.3c-.65,1.5-1.56,4-1.32,5.21.37,1.9-.24,5-1,5.89,0,0-.13,6-.31,7.37s.68,5.15,0,5.83-9.69.37-9.94-.74,1.1-6.44,1.1-6.44l.8-5.16s1.6-2.82,1.23-3.74.68-3.07.74-3.26,1.72-3.19,1.41-4.35c-.24-.89,1-15.43,1.58-22.33.2-2.17.32-3.58.32-3.58l5.44-38.18.44-3.07.44-3.12Z" transform="translate(173.2 -27.4)"/><path class="cls-6" d="M145.55,584.78c.06.68-8.66,1.67-9.9.93s0-9.89,0-9.89l.57-4.17c-.61-.06-1.54-3.37-1.11-4.17s-.37-4.17-.37-4.17l-1.44-4.52-.88-2.77c-1.44-3.16-3.52-12.2-4.81-18.94a54.34,54.34,0,0,1-1.21-8c.3-1.1-.5-9.14-.5-9.14s-1-8.17-2.33-10.74c-.9-1.71-2.65-8.12-3.74-12.25-.55-2.13-.93-3.65-.93-3.65s9.27-.78,14.9-1.05c2.59-.13,4.4-.14,4.19.07a7.69,7.69,0,0,0-.25,3c0,4.21.61,11.62,1.23,13.61.86,2.76,1.72,11,1.35,11.85s-.24,6.14-.24,6.14a27.74,27.74,0,0,1,1.08,6.66,88.88,88.88,0,0,1-.21,12s.92,14.92.67,16.33,2,5.83,2,6.69.62,6.69.62,6.69S145.51,584.11,145.55,584.78Z" transform="translate(173.2 -27.4)"/><path class="cls-6" d="M150.39,405.49l-1,1.14-.69.75-4,4.31-10.38,1.17-5.52-1.47-1.36-.37s0-2.77.24-6.09c.35-4.27,1.19-9.44,3.19-10.85a7.94,7.94,0,0,0,2.34-3,16.69,16.69,0,0,0,1-2.48l.11-.32a27.21,27.21,0,0,0,1-4.56s1.33-.73,3.17-1.58c4.8-2.24,13.1-5.34,10.21,1.58a28.75,28.75,0,0,0-1.08,3.12,3.9,3.9,0,0,0-.12.46c-1,3.85-.33,6.19.39,7.48h0a3.92,3.92,0,0,0,.42.64,3.32,3.32,0,0,0,.69.71l1.2,7.58.1.63Z" transform="translate(173.2 -27.4)"/><path class="cls-5" d="M148.62,384.14c-.55,1.31.26-1.08,0,0-2.19,1.55-7.35,6-10.24,6a8,8,0,0,1-4.22-1.11,28.07,28.07,0,0,0,1.08-4.87S152.61,374.56,148.62,384.14Z" transform="translate(173.2 -27.4)"/><path class="cls-6" d="M153,376.07a13.39,13.39,0,0,1-12,13.31c-.46,0-.93.07-1.4.07A13.38,13.38,0,1,1,153,376.07Z" transform="translate(173.2 -27.4)"/><path class="cls-5" d="M154.94,435.39l-1.91,5s-1.55.07-4,.14c-8.16.26-26.16.6-27-1.5a5.44,5.44,0,0,1-.28-1.65,32.25,32.25,0,0,1,1.38-8.11s.86-9.82.86-10.25-.73-7.31-.73-7.31l1.47-5.52,4.11-2.88s1.84,2.82,3,3.06a7.69,7.69,0,0,1,2.58,1.6s3.62,2.21,4.79,1,10.25-6.63,10.25-6.63l4.78,5.28Z" transform="translate(173.2 -27.4)"/><path class="cls-8" d="M154.94,436.15l-1.91,5s-1.55.07-4,.15h-.23c-1.05,0-2.24.07-3.51.09-6.49.15-15.43.19-20.11-.5-1.75-.25-2.9-.61-3.09-1.1a5,5,0,0,1-.23-.92c0-.23,0-.5-.06-.74a32.55,32.55,0,0,1,1.39-8.1s.86-9.82.86-10.25-.74-7.31-.74-7.31l1.48-5.52,2.82-2,1.29-.9a19.34,19.34,0,0,0,1.41,1.86,3.68,3.68,0,0,0,1.53,1.2,7.71,7.71,0,0,1,2.58,1.61s3.62,2.2,4.79,1c.89-.93,6.41-4.31,9-5.85l1.29-.78.64.72,4.15,4.56Z" transform="translate(173.2 -27.4)"/><path class="cls-5" d="M90.12,385.05l-5.34,3.75s0-.75-.18-1.77a10.8,10.8,0,0,0,4.7-4.37C89.8,384,90.12,385.05,90.12,385.05Z" transform="translate(173.2 -27.4)"/><path class="cls-4" d="M108.9,397.76l-1.16-.31s-1.91,2-3,2.28a17.1,17.1,0,0,0-3.43,1.77l-2.71,2.15s-2,.31-1.41-1.1-1.1-3.2-1.1-3.2-3.44-7.05-3.44-8.53-2.84-7.67-2.84-7.67-3.57,6.94-10.07,4.73c0,0,4.73,10.62,4.85,13.26s3.25,10,3.25,10a6.93,6.93,0,0,0,7.49,5.16s8.72,1.62,10.62,0,3.62-2.9,4.52-3.08a3.77,3.77,0,0,0,1.71-1.23V404.7Z" transform="translate(173.2 -27.4)"/><path class="cls-5" d="M98,404.7s1.53,5.71.55,6.32Z" transform="translate(173.2 -27.4)"/><path class="cls-5" d="M149.06,441.24c-8.16.26-26.16.59-27-1.5a5.5,5.5,0,0,1-.28-1.66l26.68,1.41Z" transform="translate(173.2 -27.4)"/><path class="cls-5" d="M151.07,492.47s-.5,1.4-1.19,3.23c-3.39-.2-7.87-.42-12.13-.45-1.51,0-3,0-4.38.05a33.07,33.07,0,0,0-7.15.79,18.9,18.9,0,0,1-6.38.83c-.55-2.13-.93-3.65-.93-3.65s9.27-.78,14.9-1l.44-3.12Z" transform="translate(173.2 -27.4)"/><path class="cls-7" d="M158.26,470l-1,2.21s-.14.65-.33,1.7a43.62,43.62,0,0,0-.77,9.53,76.18,76.18,0,0,1-.68,11.91s-22.59-1.9-29.21,0-9.89,0-9.89,0,.8-7.12-1.17-10.8c-1.34-2.51-2.28-13.71-2.31-21.08,0-3.4.17-6,.6-6.5,1.35-1.65,7.11-18.23,7.11-18.23l1.32.07,3.51.19,20,1.05,3.14.17.33,1Z" transform="translate(173.2 -27.4)"/><path class="cls-4" d="M168.2,462.64l.18,2s-9.89-3.23-9.39-7.19,0-3.51,0-3.51l7.95.67Z" transform="translate(173.2 -27.4)"/><path class="cls-5" d="M168.2,462.64l.18,2s-9.89-3.23-9.39-7.19,0-3.51,0-3.51l7.95.67Z" transform="translate(173.2 -27.4)"/><path class="cls-5" d="M104.58,406.28a8.73,8.73,0,0,0,3.48,1.81,2.25,2.25,0,0,1-1-.5c-.71-.5-1.38-1-2.07-1.58a6.3,6.3,0,0,0-1.91-1.32A10.24,10.24,0,0,0,104.58,406.28Z" transform="translate(173.2 -27.4)"/><path class="cls-5" d="M104.73,408.87a4.34,4.34,0,0,1,.76,1.21,7.31,7.31,0,0,1,0,3.8l-1.59-3.83c-.28-.65-.55-1.3-.88-1.93-.15-.26-1.06-1.37-1-1.6C102.29,405.86,104.43,408.5,104.73,408.87Z" transform="translate(173.2 -27.4)"/><path class="cls-5" d="M149,430.05a5.12,5.12,0,0,0,2.89-1.35c-1.63.2-3.18.85-4.78,1.18a7.12,7.12,0,0,1-4.46-.41A11,11,0,0,0,149,430.05Z" transform="translate(173.2 -27.4)"/><path class="cls-5" d="M144.37,418.81a1.13,1.13,0,0,1-.83-.21c-1.22-.7-2.43-1.43-3.62-2.19a24.57,24.57,0,0,1-3.55-2.45C138.81,416.15,141.07,418,144.37,418.81Z" transform="translate(173.2 -27.4)"/><path class="cls-5" d="M147.77,431.83a7.26,7.26,0,0,0,1.92-.16,2.57,2.57,0,0,0,1.58-1,.92.92,0,0,0-.67.11,11.29,11.29,0,0,1-6.16.73A8.92,8.92,0,0,0,147.77,431.83Z" transform="translate(173.2 -27.4)"/><path class="cls-5" d="M136.15,460.33a20.14,20.14,0,0,1-3.92.77,22.92,22.92,0,0,1-3.1-.06l-5-.32-2.51-.16c-.3,0-1.51,0-.91-.6.3-.29,2-.1,2.41-.12.83,0,1.67,0,2.51,0,1.66,0,3.33,0,5,.1C132.46,460,134.29,460.13,136.15,460.33Z" transform="translate(173.2 -27.4)"/><path class="cls-5" d="M130.33,462.81a21.3,21.3,0,0,0-2.83.59,19.49,19.49,0,0,1-3,.11,16.43,16.43,0,0,1-5.71-1.16C122.66,462.54,126.5,462.66,130.33,462.81Z" transform="translate(173.2 -27.4)"/><path class="cls-5" d="M119.58,465.44a8.57,8.57,0,0,1,1.1.31c2.11.6,4.37.07,6.52-.47a3.84,3.84,0,0,1-2.47,1.38,11.36,11.36,0,0,1-4.82.17c-.5-.1-1.76-.28-2-.8C117.49,465.26,119.11,465.37,119.58,465.44Z" transform="translate(173.2 -27.4)"/><path class="cls-5" d="M131.46,469.4a15.21,15.21,0,0,1,1.87.51c2.39.59,4.86-.22,7.26-.77a33.66,33.66,0,0,1,8.78-.81,9,9,0,0,0-1.89.61c-.67.21-1.36.4-2,.57-1.35.33-2.72.6-4.1.8a42.36,42.36,0,0,1-8.42.36c-1.28-.07-3.51.06-4.61-.58A5.07,5.07,0,0,1,131.46,469.4Z" transform="translate(173.2 -27.4)"/><path class="cls-5" d="M132.36,393.7s.12,5.65-.8,8.23c-.29.81-.75,2.29-1.24,3.95-.53,1.84-1.12,3.91-1.57,5.52s-.76,2.7-.76,2.7S125.92,431,125.38,439a1.93,1.93,0,0,1,0,.42q0,.69-.15,1.41c-1.2,8-8.09,20.32-10.4,21.3a7.06,7.06,0,0,0-2,1.34c0-3.4.17-6,.6-6.49,1.35-1.66,7.11-18.23,7.11-18.23l1.32.07c0-.23,0-.5-.06-.74A32.25,32.25,0,0,1,123.2,430s.86-9.82.86-10.25-.73-7.3-.73-7.3l1.47-5.53,2.83-2c.35-4.26,1.19-9.44,3.19-10.85a8,8,0,0,0,2.33-3c.4.06-.32-.29-.32-.29Z" transform="translate(173.2 -27.4)"/><path class="cls-4" d="M133.43,390.54a3.61,3.61,0,0,0-3.1.35c-1.42,1-4.18.92-4.92.74s-8.4-1.17-9-.93-1.84-.86-2.64.62-1.17,2.27-2,2.63-2.22,1.54-2,1.79-2,1.71-2,1.71L112.24,412s-2.89,18.41-4.3,20S94,454.3,98.49,458a89.08,89.08,0,0,0,11.23,7.53c.51.25,2.27-3.07,4.73-4.11s10.07-14.86,10.54-22.71,2.64-25.35,2.64-25.35,2.64-9.58,3.56-12.16S132,393,132,393Z" transform="translate(173.2 -27.4)"/><path class="cls-5" d="M158.26,470l-1,2.21s-.14.65-.33,1.7a.92.92,0,0,1-.5-.23c-1.54-1.23-10.54-10.49-11-18.72-.32-6.07-.17-11.3-.06-13.63,0-.73.06-1.17.06-1.27h0s7-8.47,6.19-11.47-2.64-19.08-2.64-19.08l-.27-2.1-.46-3.57-1.12-8.62,1.16.27a3.32,3.32,0,0,0,.69.71l1.2,7.58,4.14,4.57.68,27.81-1.9,5s-1.56.07-4,.14h-.23Z" transform="translate(173.2 -27.4)"/><path class="cls-4" d="M162.12,424.11s-1.72-.68-1.84,0-.43,2.14-.43,2.14.31,3.56-1,5-1.51,7.37-1.51,7.37-2.07,5.89-1.09,7.73c.36.67.91,4,1.46,8,.35,2.51.7,5.27,1,7.79.55,4.57,1,8.36,1,8.36s-1.11,4.05-2.64,2.82-10.55-10.49-11-18.72c-.3-5.77-.18-10.79-.08-13.27,0-1.05.08-1.64.08-1.64s7-8.47,6.2-11.48-2.64-19.07-2.64-19.07l-.32-2.49L149,404l-.08-.58-1.11-8.54h0c.2.05,7.09,1.6,8,2.51s6.52,2.21,6.52,2.21a4.9,4.9,0,0,1,3.48,3.57,5.36,5.36,0,0,1,.14.54c.74,3.57.5,4,1,4.61S162.12,424.11,162.12,424.11Z" transform="translate(173.2 -27.4)"/><path class="cls-5" d="M158.76,462.13c-2.51-.5-6.24-1.66-6.15-4.22.07-2.39,2.95-3.26,5.14-3.56C158.1,456.85,158.45,459.61,158.76,462.13Z" transform="translate(173.2 -27.4)"/><path class="cls-6" d="M166.54,460.86c-.1.21-.5.4-1.07.56a28.22,28.22,0,0,1-4.08.67s-8.54-.68-8.42-4.55c.1-2.77,3.95-3.51,6.11-3.68q.72-.06,1.44-.06S166.91,460.06,166.54,460.86Z" transform="translate(173.2 -27.4)"/><path class="cls-5" d="M166.54,460.86c-.1.21-.5.4-1.07.56-2.23-3-5.33-6.79-6.85-7.13l.46-.43q.72-.06,1.44-.06S166.91,460.06,166.54,460.86Z" transform="translate(173.2 -27.4)"/><path class="cls-4" d="M164.39,407.89l2.51.37a45.46,45.46,0,0,0,3,4.6,5,5,0,0,1,1.11,2.95s3.68,5.46,4.85,6.07,2.94,4.79,2.94,4.79,2.89,1.9,2.89,4.05a36.75,36.75,0,0,0,.55,5.34,15,15,0,0,1-1.65,6,20.78,20.78,0,0,0-2.4,6.87c.07.75-3.44,4.67-4.42,5.89a25.42,25.42,0,0,0-2.14,3.63l-3.26,6.14s-6.87-10.13-9.39-10.68c0,0,2.82-2.71,4.23-3.2s2.77-4.51,2.83-5.46,1.29-4,2.57-4.52,2-1.1,1.42-2a3.68,3.68,0,0,1,0-2.51s-3.62-4.79-4.12-7.53-3.8-4.6-3.8-4.6l-1.9-4.67Z" transform="translate(173.2 -27.4)"/><path class="cls-5" d="M173.52,430.8a8,8,0,0,1,5-1.88,6,6,0,0,0-3.24,1.27,7.59,7.59,0,0,0-.9,1.15c-.29.41-2.66,3.43-3,3C170.74,433.59,173.05,431.21,173.52,430.8Z" transform="translate(173.2 -27.4)"/><path class="cls-5" d="M168,427.89a2.1,2.1,0,0,0,1.75-1.23,6.92,6.92,0,0,0,.55-2.18,31.2,31.2,0,0,1,.76-3.73,1.71,1.71,0,0,0-.11-1.51,4.75,4.75,0,0,0-.54-1.11,6.79,6.79,0,0,0-.77,2.34c-.23.83-.44,1.67-.64,2.51C168.86,423.38,168,427.89,168,427.89Z" transform="translate(173.2 -27.4)"/><path class="cls-5" d="M165.79,403.11a5.06,5.06,0,0,1-.85.88c-1,.8-2.33,1.47-2.46,2.73a2.93,2.93,0,0,1-.15,1.21c-.32.55-1.11.5-1.74.39a2.93,2.93,0,0,1-1.47-.54c-.65-.56-.71-1.56-1.22-2.27a3.08,3.08,0,0,0-2.51-1.11c-.93,0-1.87.18-2.81.22a7.79,7.79,0,0,1-1.8-.12c-.19,0-.39-.07-.58-.12A6.87,6.87,0,0,1,149,404a4.53,4.53,0,0,1-.59-.28,8,8,0,0,1-1.73-1.2,4.3,4.3,0,0,1-1.61-3.26c0-.77.39-1.48.5-2.23.38-2.17-1.06-4.22-2.62-5.77-.63-.62-1.29-1.22-1.91-1.84a9.25,9.25,0,0,1-2.25-3.21,9.72,9.72,0,0,1-.4-4,28.46,28.46,0,0,0,.12-4.13c-.46-4.88-4.63-8.62-8.8-10.65l-.18-.09a13.37,13.37,0,1,1,20.17,17.57,12.91,12.91,0,0,1-2.18,2l-.12.46c-1,3.86-.32,6.2.39,7.49h0c.2,0,7.09,1.6,8,2.51s6.52,2.21,6.52,2.21A4.9,4.9,0,0,1,165.79,403.11Z" transform="translate(173.2 -27.4)"/><path class="cls-7" d="M128.62,363.75c.27-.32.69-.48,1-.79.87-.94,0-2.48.32-3.72s2-2,3.45-1.84,2.74.8,4.16,1c2.19.24,4.32-.71,6.47-1.27s4.73-.59,6.2,1.06,1.38,4.43,3.22,5.62a17.93,17.93,0,0,0,2.83,1,5.76,5.76,0,0,1,2.4,2.29,12,12,0,0,1,1.82,7.69c-.16,1.45-.58,2.87-.75,4.32a12.75,12.75,0,0,0,.3,4.52c.39,1.51,1.23,3.13,2.73,3.61a5.16,5.16,0,0,1,1,.35c.87.54.75,1.82.53,2.81l-.89,4.12c.86.65,2.19.37,3,1.06a2.47,2.47,0,0,1,.7,1.1,6,6,0,0,1-1.8,6.6c-1,.8-2.33,1.47-2.46,2.73a2.79,2.79,0,0,1-.15,1.21c-.31.55-1.11.5-1.73.39a3,3,0,0,1-1.47-.54c-.66-.56-.72-1.57-1.22-2.27a3.11,3.11,0,0,0-2.51-1.11c-.94,0-1.87.18-2.82.22a8.3,8.3,0,0,1-5.91-2.14,4.27,4.27,0,0,1-1.61-3.26c0-.76.39-1.47.5-2.23.37-2.17-1.07-4.22-2.63-5.77s-3.39-3-4.15-5c-1-2.56,0-5.41-.29-8.12-.46-4.88-4.62-8.62-8.79-10.66C129.12,366.19,127.54,365,128.62,363.75Z" transform="translate(173.2 -27.4)"/><path class="cls-5" d="M161.44,405.9c-.66-.57-.72-1.57-1.22-2.27a3.14,3.14,0,0,0-2.51-1.12c-.94,0-1.87.18-2.81.23a8.32,8.32,0,0,1-5.94-2.15,4.3,4.3,0,0,1-1.61-3.25c.05-.77.39-1.48.5-2.24.38-2.16-1.06-4.22-2.62-5.77s-3.39-3-4.16-5c-.94-2.55,0-5.4-.28-8.12-.46-4.88-4.63-8.62-8.79-10.66-1-.47-2.56-1.68-1.48-2.91.27-.32.69-.48,1-.78.87-.94,0-2.49.32-3.73a2,2,0,0,1,.32-.69,2.67,2.67,0,0,0-2.26,1.8c-.31,1.24.55,2.78-.32,3.72-.28.31-.7.47-1,.78-1.08,1.23.5,2.45,1.47,2.92,4.17,2,8.33,5.78,8.8,10.65.25,2.72-.67,5.57.28,8.13.76,2.05,2.6,3.51,4.16,5s3,3.6,2.62,5.77a18.9,18.9,0,0,0-.5,2.23A4.32,4.32,0,0,0,147,401.7a8.26,8.26,0,0,0,5.93,2.14c1,0,1.88-.25,2.82-.22a3.11,3.11,0,0,1,2.51,1.11c.5.71.56,1.71,1.22,2.27a3,3,0,0,0,1.47.54c.62.12,1.42.16,1.73-.39a1.37,1.37,0,0,0,.14-.72A2.86,2.86,0,0,1,161.44,405.9Z" transform="translate(173.2 -27.4)"/><path class="cls-9" d="M88.38,376.07H53.66V341.86H88.4Zm-.51-51.58H54.16c0-53.17,50.53-50.06,50.53-83.7A33.51,33.51,0,0,0,71,207.43c-18.52,0-33.68,16-33.68,33.89H3.63A67.26,67.26,0,0,1,70.77,174H71c37.22,0,67.38,29.69,67.38,66.84,0,42.06-50.53,46.85-50.53,83.7Z" transform="translate(173.2 -27.4)"/><path class="cls-10" d="M69.21,521.88H60.26V513h8.95Zm-.13-13.3H60.39c0-13.7,13-12.9,13-21.58a8.64,8.64,0,0,0-8.68-8.61h0a8.87,8.87,0,0,0-8.67,8.73H47.39A17.37,17.37,0,0,1,82.13,487c0,10.84-13,12.07-13,21.57Z" transform="translate(173.2 -27.4)"/><path class="cls-10" d="M-17,427.32h-9V418.5h9ZM-17.12,414H-25.8c0-13.71,13-12.91,13-21.59a8.64,8.64,0,0,0-8.68-8.6h0a8.88,8.88,0,0,0-8.71,8.74h-8.68a17.38,17.38,0,0,1,17.59-17.15,17.38,17.38,0,0,1,17.15,17C-4.1,403.29-17.12,404.53-17.12,414Z" transform="translate(173.2 -27.4)"/><path class="cls-10" d="M24.24,318.55H17.75v-6.38h6.49Zm-.09-9.64h-6.3c0-9.93,9.45-9.35,9.45-15.63A6.28,6.28,0,0,0,21,287h0a6.42,6.42,0,0,0-6.29,6.34H8.41a12.59,12.59,0,1,1,25.18-.1C33.58,301.13,24.15,302,24.15,308.91Z" transform="translate(173.2 -27.4)"/><path class="cls-10" d="M135.09,327.56h-3.67v-3.62h3.67Zm-.05-5.45h-3.58c0-5.61,5.33-5.28,5.33-8.84a3.51,3.51,0,0,0-3.51-3.51h0a3.63,3.63,0,0,0-3.56,3.58h-3.56a7.12,7.12,0,0,1,14.23-.06C140.37,317.7,135,318.22,135,322.11Z" transform="translate(173.2 -27.4)"/><path class="cls-10" d="M191.19,491.93h-3.67v-3.62h3.67Zm-.06-5.45h-3.56c0-5.62,5.34-5.28,5.34-8.84a3.53,3.53,0,0,0-3.56-3.51,3.62,3.62,0,0,0-3.55,3.58h-3.56a7.12,7.12,0,0,1,14.23-.06c0,4.43-5.32,4.94-5.32,8.83Z" transform="translate(173.2 -27.4)"/></svg>